# xmcd
#
# Track frame offsets:
#	150
#	20886
#	38074
#	57538
#	80256
#	99428
#	115887
#	131503
#	153517
#	176517
#	192366
#	211874
#	233296
#
# Disc length: 3381 seconds
#
# Revision: 3
# Processed by: cddbd v1.5.2PL0 Copyright (c) Steve Scherf et al.
# Submitted via: EZCDAudioConverter 7.1.7.1
#
DISCID=a40d330d
DTITLE=王子月 - 你走以后 Dts-Es6.1
DYEAR=2011
DGENRE=
TTITLE0=明月夜
TTITLE1=最后的枫叶
TTITLE2=你走以后
TTITLE3=没那么简单
TTITLE4=情书
TTITLE5=你给的冬天
TTITLE6=忘记尘埃忘记你
TTITLE7=传奇(深情对唱版)
TTITLE8=为你等待
TTITLE9=美人鱼之歌
TTITLE10=天上人间
TTITLE11=云淡风轻
TTITLE12=你是否也在我心中
EXTD=
EXTT0=
EXTT1=
EXTT2=
EXTT3=
EXTT4=
EXTT5=
EXTT6=
EXTT7=
EXTT8=
EXTT9=
EXTT10=
EXTT11=
EXTT12=
PLAYORDER=
